<svg width="16" height="16" viewBox="0 0 16 16" fill="none" xmlns="http://www.w3.org/2000/svg">
<mask id="path-1-outside-1_1_1144" maskUnits="userSpaceOnUse" x="1.66669" y="1.66666" width="12" height="12" fill="black">
<rect fill="white" x="1.66669" y="1.66666" width="12" height="12"/>
<path d="M3.74402 13.3333C3.43691 13.3333 3.18069 13.2307 2.97535 13.0253C2.77002 12.82 2.66713 12.5635 2.66669 12.256V3.74399C2.66669 3.43688 2.76958 3.18066 2.97535 2.97532C3.18113 2.76999 3.43735 2.6671 3.74402 2.66666H12.2567C12.5634 2.66666 12.8196 2.76955 13.0254 2.97532C13.2311 3.1811 13.3338 3.43732 13.3334 3.74399V12.2567C13.3334 12.5633 13.2307 12.8195 13.0254 13.0253C12.82 13.2311 12.5636 13.3338 12.256 13.3333H3.74402ZM3.74402 12.6667H7.66669V3.33332H3.74402C3.64135 3.33332 3.54713 3.37599 3.46135 3.46132C3.37558 3.54666 3.33291 3.64088 3.33335 3.74399V12.2567C3.33335 12.3589 3.37602 12.4529 3.46135 12.5387C3.54669 12.6244 3.64069 12.6671 3.74335 12.6667M8.33335 12.6667H12.2567C12.3589 12.6667 12.4529 12.624 12.5387 12.5387C12.6245 12.4533 12.6671 12.3591 12.6667 12.256V7.99999H8.33335V12.6667ZM8.33335 7.33332H12.6667V3.74399C12.6667 3.64132 12.624 3.5471 12.5387 3.46132C12.4534 3.37555 12.3591 3.33288 12.256 3.33332H8.33335V7.33332Z"/>
</mask>
<path d="M3.74402 13.3333C3.43691 13.3333 3.18069 13.2307 2.97535 13.0253C2.77002 12.82 2.66713 12.5635 2.66669 12.256V3.74399C2.66669 3.43688 2.76958 3.18066 2.97535 2.97532C3.18113 2.76999 3.43735 2.6671 3.74402 2.66666H12.2567C12.5634 2.66666 12.8196 2.76955 13.0254 2.97532C13.2311 3.1811 13.3338 3.43732 13.3334 3.74399V12.2567C13.3334 12.5633 13.2307 12.8195 13.0254 13.0253C12.82 13.2311 12.5636 13.3338 12.256 13.3333H3.74402ZM3.74402 12.6667H7.66669V3.33332H3.74402C3.64135 3.33332 3.54713 3.37599 3.46135 3.46132C3.37558 3.54666 3.33291 3.64088 3.33335 3.74399V12.2567C3.33335 12.3589 3.37602 12.4529 3.46135 12.5387C3.54669 12.6244 3.64069 12.6671 3.74335 12.6667M8.33335 12.6667H12.2567C12.3589 12.6667 12.4529 12.624 12.5387 12.5387C12.6245 12.4533 12.6671 12.3591 12.6667 12.256V7.99999H8.33335V12.6667ZM8.33335 7.33332H12.6667V3.74399C12.6667 3.64132 12.624 3.5471 12.5387 3.46132C12.4534 3.37555 12.3591 3.33288 12.256 3.33332H8.33335V7.33332Z" fill="#5A5A62"/>
<path d="M2.66669 12.256H2.46669L2.46669 12.2563L2.66669 12.256ZM3.74402 2.66666V2.46666L3.74373 2.46666L3.74402 2.66666ZM13.3334 3.74399L13.1334 3.7437V3.74399H13.3334ZM12.256 13.3333L12.2563 13.1333H12.256V13.3333ZM7.66669 12.6667V12.8667H7.86669V12.6667H7.66669ZM7.66669 3.33332H7.86669V3.13332H7.66669V3.33332ZM3.33335 3.74399H3.53336L3.53335 3.74313L3.33335 3.74399ZM8.33335 12.6667H8.13335V12.8667H8.33335V12.6667ZM12.6667 12.256H12.4667L12.4667 12.2569L12.6667 12.256ZM12.6667 7.99999H12.8667V7.79999H12.6667V7.99999ZM8.33335 7.99999V7.79999H8.13335V7.99999H8.33335ZM8.33335 7.33332H8.13335V7.53332H8.33335V7.33332ZM12.6667 7.33332V7.53332H12.8667V7.33332H12.6667ZM12.256 3.33332V3.53333L12.2569 3.53332L12.256 3.33332ZM8.33335 3.33332V3.13332H8.13335V3.33332H8.33335ZM3.74402 13.1333C3.48656 13.1333 3.28227 13.0494 3.11677 12.8839L2.83393 13.1667C3.07911 13.4119 3.38726 13.5333 3.74402 13.5333V13.1333ZM3.11677 12.8839C2.95127 12.7184 2.86706 12.5138 2.86669 12.2557L2.46669 12.2563C2.4672 12.6133 2.58878 12.9216 2.83393 13.1667L3.11677 12.8839ZM2.86669 12.256V3.74399H2.46669V12.256H2.86669ZM2.86669 3.74399C2.86669 3.48666 2.95074 3.28242 3.11662 3.1169L2.83409 2.83375C2.58841 3.07889 2.46669 3.38709 2.46669 3.74399H2.86669ZM3.11662 3.1169C3.28275 2.95112 3.48729 2.86703 3.74431 2.86666L3.74373 2.46666C3.38742 2.46717 3.07951 2.58885 2.83409 2.83375L3.11662 3.1169ZM3.74402 2.86666H12.2567V2.46666H3.74402V2.86666ZM12.2567 2.86666C12.5135 2.86666 12.7178 2.95066 12.8839 3.11674L13.1668 2.8339C12.9213 2.58843 12.6132 2.46666 12.2567 2.46666V2.86666ZM12.8839 3.11674C13.0499 3.28275 13.1337 3.487 13.1334 3.7437L13.5334 3.74428C13.5339 3.38765 13.4123 3.07945 13.1668 2.8339L12.8839 3.11674ZM13.1334 3.74399V12.2567H13.5334V3.74399H13.1334ZM13.1334 12.2567C13.1334 12.5136 13.0495 12.718 12.8838 12.8841L13.1669 13.1666C13.4119 12.9211 13.5334 12.6131 13.5334 12.2567H13.1334ZM12.8838 12.8841C12.7184 13.0498 12.5141 13.1337 12.2563 13.1333L12.2557 13.5333C12.6131 13.5338 12.9216 13.4124 13.1669 13.1666L12.8838 12.8841ZM12.256 13.1333H3.74402V13.5333H12.256V13.1333ZM3.74402 12.8667H7.66669V12.4667H3.74402V12.8667ZM7.86669 12.6667V3.33332H7.46669V12.6667H7.86669ZM7.66669 3.13332H3.74402V3.53332H7.66669V3.13332ZM3.74402 3.13332C3.57914 3.13332 3.43636 3.20408 3.3203 3.31953L3.60241 3.60311C3.6579 3.5479 3.70357 3.53332 3.74402 3.53332V3.13332ZM3.3203 3.31953C3.20369 3.43554 3.13264 3.57896 3.13336 3.74485L3.53335 3.74313C3.53318 3.7028 3.54747 3.65777 3.60241 3.60311L3.3203 3.31953ZM3.13335 3.74399V12.2567H3.53335V3.74399H3.13335ZM3.13335 12.2567C3.13335 12.4213 3.2043 12.5638 3.31957 12.6797L3.60314 12.3976C3.54774 12.3419 3.53335 12.2964 3.53335 12.2567H3.13335ZM3.31957 12.6797C3.43538 12.7961 3.57853 12.8674 3.74422 12.8667L3.74249 12.4667C3.70284 12.4668 3.658 12.4527 3.60314 12.3976L3.31957 12.6797ZM8.33335 12.8667H12.2567V12.4667H8.33335V12.8667ZM12.2567 12.8667C12.4214 12.8667 12.5639 12.7957 12.6797 12.6804L12.3976 12.3969C12.3419 12.4523 12.2965 12.4667 12.2567 12.4667V12.8667ZM12.6797 12.6804C12.7964 12.5644 12.8674 12.421 12.8667 12.2551L12.4667 12.2569C12.4669 12.2972 12.4526 12.3422 12.3976 12.3969L12.6797 12.6804ZM12.8667 12.256V7.99999H12.4667V12.256H12.8667ZM12.6667 7.79999H8.33335V8.19999H12.6667V7.79999ZM8.13335 7.99999V12.6667H8.53335V7.99999H8.13335ZM8.33335 7.53332H12.6667V7.13332H8.33335V7.53332ZM12.8667 7.33332V3.74399H12.4667V7.33332H12.8667ZM12.8667 3.74399C12.8667 3.57911 12.7959 3.43633 12.6805 3.32027L12.3969 3.60238C12.4521 3.65787 12.4667 3.70354 12.4667 3.74399H12.8667ZM12.6805 3.32027C12.5645 3.20366 12.421 3.13261 12.2552 3.13333L12.2569 3.53332C12.2972 3.53315 12.3422 3.54743 12.3969 3.60238L12.6805 3.32027ZM12.256 3.13332H8.33335V3.53332H12.256V3.13332ZM8.13335 3.33332V7.33332H8.53335V3.33332H8.13335Z" fill="#5A5A62" mask="url(#path-1-outside-1_1_1144)"/>
</svg>
