<?xml version="1.0" standalone="no"?>
<!DOCTYPE svg PUBLIC "-//W3C//DTD SVG 20010904//EN"
 "http://www.w3.org/TR/2001/REC-SVG-20010904/DTD/svg10.dtd">
<svg version="1.0" xmlns="http://www.w3.org/2000/svg"
 width="40" height="40" viewBox="0 0 512.000000 512.000000"
 preserveAspectRatio="xMidYMid meet">

<g transform="translate(0.000000,512.000000) scale(0.100000,-0.100000)"
fill="#000000" stroke="none">
<path d="M2077 3760 c-134 -58 -249 -136 -361 -241 -265 -252 -397 -560 -397
-929 0 -267 67 -487 217 -713 150 -225 397 -412 654 -496 186 -61 433 -79 623
-46 417 73 774 351 943 735 69 157 57 242 -40 289 -54 27 -69 26 -174 -4 -342
-98 -700 -8 -946 238 -251 252 -340 601 -241 949 30 105 31 120 4 174 -45 95
-135 109 -282 44z m-79 -531 c12 -666 569 -1220 1238 -1231 57 -1 104 -4 104
-8 0 -12 -154 -156 -202 -189 -72 -48 -204 -108 -293 -133 -68 -19 -106 -22
-255 -22 -162 0 -182 2 -263 27 -508 157 -795 665 -660 1172 19 74 90 227 134
292 33 48 177 203 189 203 3 0 7 -50 8 -111z"/>
</g>
</svg>
