<svg width="24" height="24" viewBox="0 0 24 24" fill="none" xmlns="http://www.w3.org/2000/svg">
<path fill-rule="evenodd" clip-rule="evenodd" d="M12 18.857C12.9011 18.8592 13.7938 18.6834 14.6267 18.3396C15.4596 17.9958 16.2164 17.4908 16.8536 16.8536C17.4908 16.2164 17.9958 15.4596 18.3396 14.6267C18.6834 13.7938 18.8592 12.9011 18.857 12C18.8592 11.0989 18.6834 10.2062 18.3396 9.37328C17.9958 8.54034 17.4908 7.78354 16.8536 7.14636C16.2164 6.50919 15.4596 6.00419 14.6267 5.66039C13.7938 5.31658 12.9011 5.14075 12 5.143C11.0989 5.14075 10.2062 5.31658 9.37328 5.66039C8.54034 6.00419 7.78354 6.50919 7.14636 7.14636C6.50919 7.78354 6.00419 8.54034 5.66039 9.37328C5.31658 10.2062 5.14075 11.0989 5.143 12C5.14075 12.9011 5.31658 13.7938 5.66039 14.6267C6.00419 15.4596 6.50919 16.2164 7.14636 16.8536C7.78354 17.4908 8.54034 17.9958 9.37328 18.3396C10.2062 18.6834 11.0989 18.8592 12 18.857ZM13.886 13.084C13.886 12.086 13.286 11.743 12.086 11.601C11.229 11.486 11.057 11.258 11.057 10.856C11.057 10.457 11.344 10.2 11.914 10.2C12.429 10.2 12.716 10.371 12.857 10.8C12.887 10.886 12.973 10.941 13.059 10.941H13.513C13.5393 10.9418 13.5654 10.9373 13.5899 10.9277C13.6144 10.9182 13.6367 10.9038 13.6555 10.8854C13.6743 10.867 13.6891 10.8449 13.6992 10.8207C13.7092 10.7964 13.7143 10.7703 13.714 10.744V10.714C13.599 10.084 13.084 9.484 12.429 9.428V8.798C12.429 8.683 12.343 8.597 12.201 8.571H11.824C11.709 8.571 11.601 8.657 11.572 8.798V9.428C10.714 9.544 10.144 10.2 10.144 10.916C10.144 11.858 10.714 12.227 11.914 12.373C12.716 12.514 12.973 12.686 12.973 13.144C12.973 13.598 12.57 13.916 12.03 13.916C11.284 13.916 11.027 13.598 10.942 13.17C10.916 13.058 10.83 12.998 10.744 12.998H10.256C10.2296 12.9977 10.2035 13.0028 10.1791 13.0129C10.1547 13.023 10.1327 13.038 10.1143 13.0568C10.0959 13.0757 10.0815 13.0981 10.072 13.1228C10.0625 13.1474 10.058 13.1736 10.059 13.2V13.23C10.17 13.941 10.629 14.43 11.572 14.571V15.206C11.572 15.321 11.657 15.398 11.799 15.428H12.21C12.321 15.428 12.399 15.351 12.429 15.206V14.571C13.286 14.43 13.886 13.856 13.886 13.084ZM9.114 15.22C9.529 15.6 10.014 15.894 10.543 16.085C10.629 16.145 10.714 16.257 10.714 16.342V16.745C10.714 16.801 10.714 16.831 10.684 16.856C10.659 16.972 10.543 17.028 10.427 16.972C9.38721 16.6409 8.4797 15.9876 7.83571 15.1066C7.19172 14.2257 6.84462 13.1627 6.84462 12.0715C6.84462 10.9803 7.19172 9.9173 7.83571 9.03636C8.4797 8.15541 9.38721 7.50213 10.427 7.171C10.457 7.145 10.513 7.145 10.543 7.145C10.659 7.171 10.714 7.256 10.714 7.372V7.771C10.714 7.916 10.659 8.002 10.543 8.058C9.95862 8.26867 9.42781 8.60548 8.9883 9.04447C8.54879 9.48346 8.21136 10.0139 8 10.598C7.70535 11.3917 7.65387 12.2551 7.8521 13.0782C8.05034 13.9012 8.48931 14.6465 9.113 15.219M13.315 7.285C13.34 7.17 13.456 7.114 13.572 7.17C14.3574 7.42564 15.0705 7.86505 15.6519 8.45171C16.2334 9.03836 16.6664 9.75532 16.915 10.543C17.1202 11.1864 17.1966 11.8639 17.1396 12.5369C17.0827 13.2098 16.8936 13.8649 16.5832 14.4646C16.2727 15.0644 15.8471 15.597 15.3306 16.0321C14.814 16.4671 14.2168 16.796 13.573 17C13.543 17.026 13.487 17.026 13.457 17.026C13.341 17 13.286 16.915 13.286 16.799V16.4C13.286 16.255 13.341 16.169 13.457 16.113C14.0414 15.9023 14.5722 15.5655 15.0117 15.1265C15.4512 14.6875 15.7886 14.1571 16 13.573C16.196 13.0461 16.2856 12.4856 16.2637 11.9238C16.2418 11.3621 16.1089 10.8102 15.8725 10.3001C15.6362 9.79005 15.3011 9.33185 14.8867 8.95199C14.4723 8.57213 13.9867 8.27814 13.458 8.087C13.372 8.027 13.287 7.915 13.287 7.8V7.4C13.287 7.34 13.287 7.314 13.317 7.284" fill="#2775CA"/>
</svg>
